<svg data-v-97fc22ee="" data-noselect="" viewBox="0 0 800 600" width="50" height="52" preserveAspectRatio="none" version="1.1" xmlns="http://www.w3.org/2000/svg" xmlns:xlink="http://www.w3.org/1999/xlink" class="svg-canvas" style=""><defs data-v-97fc22ee=""></defs> <g data-v-97fc22ee="" id="background" data-noselect=""><rect x="0" y="0" fill="#2f3192" width="800" height="600" data-noselect=""></rect> <!----></g><g data-v-97fc22ee="" mask=""><g data-v-97fc22ee="" transform="translate(161.1953991971,120) rotate(0,153.65482233503,180) scale(1,1)" filter="" style="opacity: 1;"><g data-v-97fc22ee=""><rect fill="rgba(0,0,0,0)" width="327.30964467006" height="380" x="-10" y="-10"></rect><svg version="1.1" id="图层_1" xmlns="http://www.w3.org/2000/svg" xmlns:xlink="http://www.w3.org/1999/xlink" x="0px" y="0px" width="307.30964467006" height="360" viewBox="0 0 100.9 118.2" style="enable-background:new 0 0 100.9 118.2;" xml:space="preserve" class="style-removed" preserveAspectRatio="none" data-parent="shape_6NfJVXkcom">

<g>
	<g>
		<path d="M13,34.1l-5.8-3.2C17.5,11.9,37.4,0,59.1,0c14.4,0,28.3,5.3,39.1,14.8l-4.4,5C84.3,11.3,71.9,6.6,59.1,6.6
			C39.9,6.6,22.2,17.2,13,34.1z" fill="#FFFFFF" stroke-width="0"></path>
	</g>
	<g>
		<linearGradient id="SVGID_1__X996QGlsn8" gradientUnits="userSpaceOnUse" x1="0" y1="74.5884" x2="100.9202" y2="74.5884">
			<stop offset="0" stop-color="#0096D4"></stop>
			<stop offset="1" stop-color="#2F3192"></stop>
		</linearGradient>
		<path d="M59.1,118.2C26.5,118.2,0,91.7,0,59.1c0-9.8,2.5-19.6,7.1-28.2l5.8,3.2c-4.1,7.6-6.3,16.3-6.3,25
			c0,28.9,23.5,52.5,52.5,52.5c14,0,27.2-5.5,37.1-15.4l4.7,4.7C89.8,112.1,74.9,118.2,59.1,118.2z" fill="url(#SVGID_1__X996QGlsn8)" stroke-width="0"></path>
	</g>
</g>
</svg></g></g></g><g data-v-97fc22ee="" mask=""><g data-v-97fc22ee="" transform="translate(-139.35428815305002,-187.69577809339003) rotate(0,583.5673233370501,466.06732333705) scale(1,1)" filter="" style="opacity: 1;"><g data-v-97fc22ee=""><svg xmlns="http://www.w3.org/2000/svg" version="1.1" xmlns:xlink="http://www.w3.org/1999/xlink" width="1167.1346466741002" height="932.1346466741002" viewBox="0 0 1167.1346466741002 932.1346466741002" data-ligature="true" data-parent="shape_oVnoe3xKJx"><g data-role="text" data-width="388.56000000000006" data-height="155" transform="translate(388.56732333705, 388.56732333705)"><path d="M125.50-68.39L125.50-56.99Q124.86-58.54 123.43-59.06Q122.01-59.58 120.84-59.58L120.84-59.58L79.27-59.58L75.90-49.48L94.42-49.48L94.42-18.13L123.56-18.13L123.56-7.25L119.55-9.45L77.71-9.45L77.71-47.02L75.77-48.96L62.82-9.58L34.45-9.58L34.45-20.46L38.60-18.26L47.15-18.26L60.36-59.58L34.45-59.58L34.45-70.59L38.60-68.39L63.21-68.39L68.13-83.41L65.80-86.00L88.07-86.00L82.25-68.39L103.10-68.39L98.18-80.43L94.94-82.89L113.98-82.89L119.94-68.39L125.50-68.39ZM29.92-66.06L29.92-9.58L13.34-9.58L13.34-56.60L4.14-56.60L18.78-83.67L16.45-86.13L35.88-86.13L25.52-66.06L29.92-66.06Z" transform="translate(0 123) " fill="rgb(0, 150, 212)" stroke="rgb(0, 150, 212)" stroke-width="0.216" data-glyph-w="129.52" data-glyph-h="129.52" data-glyph-ascender="111.25768000000002" data-glyph-descender="-18.262320000000003" data-kerning="0"></path><path d="M125.50-30.83L125.50-19.43Q124.86-21.11 123.50-21.57Q122.14-22.02 120.97-22.02L120.97-22.02L88.72-22.02L88.72-47.53L76.93-47.53L63.59-22.02L45.33-22.02L59.19-47.53L42.61-47.53L42.61-58.54L46.76-56.34L76.03-56.34L76.03-67.09L62.04-67.09L60.74-61.26L44.17-61.26L48.31-80.04L45.98-82.50L65.41-82.50L63.98-76.03L76.03-76.03L76.03-83.67L73.70-86.26L92.61-86.26L92.61-76.03L123.30-76.03L123.30-64.50Q122.66-66.18 121.30-66.64Q119.94-67.09 118.77-67.09L118.77-67.09L92.61-67.09L92.61-56.34L125.50-56.34L125.50-44.94Q124.86-46.50 123.50-47.02Q122.14-47.53 120.97-47.53L120.97-47.53L105.17-47.53L105.17-30.83L125.50-30.83ZM125.50-18.39L125.50-7.12Q124.86-8.55 123.50-9.00Q122.14-9.45 120.97-9.45L120.97-9.45L13.34-9.45L16.58-13.21L16.58-50.25L4.14-50.25L4.14-61.26L8.16-59.06L33.29-59.06L33.29-18.39L125.50-18.39ZM29.40-83.15L39.37-64.50L22.80-64.50L13.60-80.56L11.27-83.15L29.40-83.15Z" transform="translate(129.52 123) " fill="rgb(0, 150, 212)" stroke="rgb(0, 150, 212)" stroke-width="0.216" data-glyph-w="129.52" data-glyph-h="129.52" data-glyph-ascender="111.25768000000002" data-glyph-descender="-18.262320000000003" data-kerning="0"></path><path d="M84.84-80.56L125.89-80.56L125.89-73.57Q125.38-74.60 123.89-74.86Q122.40-75.12 121.23-75.12L121.23-75.12L84.84-75.12L84.84-69.55L126.15-69.55L126.15-62.17Q125.50-63.08 124.14-63.46Q122.78-63.85 121.62-63.85L121.62-63.85L84.84-63.85L84.84-59.58L126.15-59.58L126.15-52.20Q125.50-53.10 124.14-53.43Q122.78-53.75 121.62-53.75L121.62-53.75L84.84-53.75L84.84-49.35L126.15-49.35L126.15-41.83Q125.50-42.74 124.14-43.07Q122.78-43.39 121.62-43.39L121.62-43.39L31.99-43.39L31.99-50.77L35.88-49.35L68.26-49.35L68.26-53.75L31.99-53.75L31.99-61.00L35.88-59.58L68.26-59.58L68.26-63.85L31.99-63.85L31.99-70.98L35.88-69.55L68.26-69.55L68.26-75.12L31.60-75.12L31.60-81.99L35.62-80.56L68.26-80.56L68.26-82.63L65.93-85.09L84.84-85.09L84.84-80.56ZM73.83-28.88L73.83-8.55L57.25-8.55L57.25-28.88L42.61-28.88L30.96-8.29L4.79-8.29L4.79-16.58L8.81-15.02L16.71-15.02L23.96-27.59L22.67-28.88L4.66-28.88L4.66-38.34L8.68-36.40L57.25-36.40L57.25-38.73L54.92-41.19L73.83-41.19L73.83-36.40L126.15-36.40L126.15-26.81Q125.50-28.11 124.14-28.49Q122.78-28.88 121.62-28.88L121.62-28.88L108.28-28.88L106.98-27.59L114.24-15.02L122.14-15.02L126.15-16.58L126.15-8.29L99.99-8.29L88.20-28.88L73.83-28.88ZM28.49-74.60L28.49-42.61L11.92-42.61L11.92-68.90L3.50-68.90L15.15-83.67L12.30-85.09L33.29-85.09L24.87-74.60L28.49-74.60Z" transform="translate(259.04 123) " fill="rgb(255, 255, 255)" stroke="rgb(255, 255, 255)" stroke-width="0.216" data-glyph-w="129.52" data-glyph-h="129.52" data-glyph-ascender="111.25768000000002" data-glyph-descender="-18.262320000000003" data-kerning="0"></path></g></svg></g></g></g><g data-v-97fc22ee="" mask=""><g data-v-97fc22ee="" transform="translate(121.76682063422402,202.38916973168404) rotate(0,232.526276469736,155.026276469736) scale(1,1)" filter="" style="opacity: 1;"><g data-v-97fc22ee=""><svg xmlns="http://www.w3.org/2000/svg" version="1.1" xmlns:xlink="http://www.w3.org/1999/xlink" width="465.052552939472" height="310.052552939472" viewBox="0 0 465.052552939472 310.052552939472" data-ligature="true" data-parent="shape_bNMCts2rfG"><g data-role="text" data-width="204.38814453125" data-height="51" transform="translate(129.526276469736, 129.526276469736)"><path d="M13.64-4.43Q8.52-4.43 4.89-7.42L4.89-7.42Q1.27-10.42 1.27-14.65L1.27-14.65L6.85-14.65Q6.85-12.73 8.83-11.39L8.83-11.39Q10.84-10.01 13.64-10.01L13.64-10.01Q16.55-10.01 18.43-11.03L18.43-11.03Q20.41-12.10 20.41-13.89L20.41-13.89Q20.41-15.98 17.58-16.91L17.58-16.91Q17.20-17.04 11.39-18.20L11.39-18.20Q7.17-19.04 5.17-20.54L5.17-20.54Q2.34-22.62 2.34-26.69L2.34-26.69Q2.34-30.68 5.65-33.19L5.65-33.19Q8.83-35.63 13.64-35.63L13.64-35.63Q18.32-35.63 21.61-32.91L21.61-32.91Q24.92-30.19 24.92-26.35L24.92-26.35L19.33-26.35Q19.33-27.87 17.67-28.95L17.67-28.95Q16.00-30.02 13.64-30.02L13.64-30.02Q11.15-30.02 9.59-29.20L9.59-29.20Q7.93-28.29 7.93-26.69L7.93-26.69Q7.93-24.86 10.75-23.99L10.75-23.99Q11.74-23.68 13.64-23.34L13.64-23.34Q16.45-22.83 16.97-22.71L16.97-22.71Q21.13-21.84 23.17-20.24L23.17-20.24Q26.00-18.03 26.00-13.89L26.00-13.89Q26.00-9.70 22.37-7.02L22.37-7.02Q18.87-4.43 13.64-4.43L13.64-4.43Z" transform="translate(0 39) " fill="rgb(255, 255, 255)" stroke="rgb(255, 255, 255)" stroke-width="0.072" data-glyph-w="27.261591796875" data-glyph-h="44.99322265625" data-glyph-ascender="36.1801171875" data-glyph-descender="-8.81310546875" data-kerning="0"></path><path d="M20.20-12.40L7.23-12.40Q7.55-11.93 7.95-11.53L7.95-11.53Q9.47-10.01 11.60-10.01L11.60-10.01Q13.98-10.01 15.54-11.83L15.54-11.83L20.41-9.02Q17.20-4.43 11.60-4.43L11.60-4.43Q7.15-4.43 4.01-7.59L4.01-7.59Q0.84-10.73 0.84-15.18L0.84-15.18Q0.84-19.65 4.01-22.79L4.01-22.79Q7.15-25.93 11.60-25.93L11.60-25.93Q16.07-25.93 19.21-22.79L19.21-22.79Q22.35-19.65 22.35-15.18L22.35-15.18Q22.35-13.73 21.97-12.33L21.97-12.33L20.20-12.40ZM7.25-17.98L7.25-17.98L15.94-17.98Q15.64-18.43 15.24-18.83L15.24-18.83Q13.75-20.35 11.60-20.35L11.60-20.35Q9.47-20.35 7.95-18.83L7.95-18.83Q7.55-18.43 7.25-17.98Z" transform="translate(27.261591796875 39) " fill="rgb(255, 255, 255)" stroke="rgb(255, 255, 255)" stroke-width="0.072" data-glyph-w="23.1923828125" data-glyph-h="44.99322265625" data-glyph-ascender="36.1801171875" data-glyph-descender="-8.81310546875" data-kerning="0"></path><path d="M7.06-4.98L7.06-35.08L1.48-35.08L1.48-4.98L7.06-4.98Z" transform="translate(50.453974609374995 39) " fill="rgb(255, 255, 255)" stroke="rgb(255, 255, 255)" stroke-width="0.072" data-glyph-w="8.539013671875" data-glyph-h="44.99322265625" data-glyph-ascender="36.1801171875" data-glyph-descender="-8.81310546875" data-kerning="0"></path><path d="M20.20-12.40L7.23-12.40Q7.55-11.93 7.95-11.53L7.95-11.53Q9.47-10.01 11.60-10.01L11.60-10.01Q13.98-10.01 15.54-11.83L15.54-11.83L20.41-9.02Q17.20-4.43 11.60-4.43L11.60-4.43Q7.15-4.43 4.01-7.59L4.01-7.59Q0.84-10.73 0.84-15.18L0.84-15.18Q0.84-19.65 4.01-22.79L4.01-22.79Q7.15-25.93 11.60-25.93L11.60-25.93Q16.07-25.93 19.21-22.79L19.21-22.79Q22.35-19.65 22.35-15.18L22.35-15.18Q22.35-13.73 21.97-12.33L21.97-12.33L20.20-12.40ZM7.25-17.98L7.25-17.98L15.94-17.98Q15.64-18.43 15.24-18.83L15.24-18.83Q13.75-20.35 11.60-20.35L11.60-20.35Q9.47-20.35 7.95-18.83L7.95-18.83Q7.55-18.43 7.25-17.98Z" transform="translate(58.99298828124999 39) " fill="rgb(255, 255, 255)" stroke="rgb(255, 255, 255)" stroke-width="0.072" data-glyph-w="23.1923828125" data-glyph-h="44.99322265625" data-glyph-ascender="36.1801171875" data-glyph-descender="-8.81310546875" data-kerning="0"></path><path d="M11.60-25.93Q17.18-25.93 20.41-21.36L20.41-21.36L15.83-18.15Q14.27-20.35 11.60-20.35L11.60-20.35Q9.47-20.35 7.95-18.83L7.95-18.83Q6.43-17.33 6.43-15.18L6.43-15.18Q6.43-13.05 7.95-11.53L7.95-11.53Q9.47-10.01 11.60-10.01L11.60-10.01Q14.27-10.01 15.83-12.23L15.83-12.23L20.41-9.02Q17.18-4.43 11.60-4.43L11.60-4.43Q7.15-4.43 3.98-7.59L3.98-7.59Q0.84-10.73 0.84-15.18L0.84-15.18Q0.84-19.65 3.98-22.79L3.98-22.79Q7.15-25.93 11.60-25.93L11.60-25.93Z" transform="translate(82.18537109374999 39) " fill="rgb(255, 255, 255)" stroke="rgb(255, 255, 255)" stroke-width="0.072" data-glyph-w="21.25265625" data-glyph-h="44.99322265625" data-glyph-ascender="36.1801171875" data-glyph-descender="-8.81310546875" data-kerning="0"></path><path d="M3.96-25.41L0.84-25.41L0.84-19.82L3.96-19.82L3.96-11.85Q3.96-9.00 5.97-6.98L5.97-6.98Q7.99-4.98 10.84-4.98L10.84-4.98L13.75-4.98L13.75-10.56L10.84-10.56Q10.31-10.56 9.93-10.94L9.93-10.94Q9.55-11.32 9.55-11.85L9.55-11.85L9.55-19.82L13.75-19.82L13.75-25.41L9.55-25.41L9.55-31.86L3.96-31.86L3.96-25.41Z" transform="translate(103.43802734375 39) " fill="rgb(255, 255, 255)" stroke="rgb(255, 255, 255)" stroke-width="0.072" data-glyph-w="14.5901171875" data-glyph-h="44.99322265625" data-glyph-ascender="36.1801171875" data-glyph-descender="-8.81310546875" data-kerning="0"></path><path d="M15.35-13.03L7.70-24.82L7.70-4.98L2.11-4.98L2.11-35.08L7.70-35.08L17.69-19.67L27.70-35.08L33.29-35.08L33.29-4.98L27.70-4.98L27.70-24.84L20.05-13.03L15.35-13.03Z" transform="translate(118.02814453124999 39) " fill="rgb(255, 255, 255)" stroke="rgb(255, 255, 255)" stroke-width="0.072" data-glyph-w="35.400009765625" data-glyph-h="44.99322265625" data-glyph-ascender="36.1801171875" data-glyph-descender="-8.81310546875" data-kerning="0"></path><path d="M11.07-10.01Q9.15-10.01 7.80-11.53L7.80-11.53Q6.43-13.05 6.43-15.18L6.43-15.18Q6.43-17.33 7.80-18.83L7.80-18.83Q9.15-20.35 11.07-20.35L11.07-20.35Q12.99-20.35 14.34-18.83L14.34-18.83Q15.69-17.33 15.69-15.18L15.69-15.18Q15.69-13.05 14.34-11.53L14.34-11.53Q12.99-10.01 11.07-10.01L11.07-10.01ZM15.69-24.63Q13.51-25.93 10.86-25.93L10.86-25.93Q6.70-25.93 3.77-22.79L3.77-22.79Q0.84-19.65 0.84-15.18L0.84-15.18Q0.84-10.73 3.77-7.59L3.77-7.59Q6.70-4.43 10.86-4.43L10.86-4.43Q13.51-4.43 15.69-5.73L15.69-5.73L15.69-4.98L21.27-4.98L21.27-25.41L15.69-25.41L15.69-24.63Z" transform="translate(153.428154296875 39) " fill="rgb(255, 255, 255)" stroke="rgb(255, 255, 255)" stroke-width="0.072" data-glyph-w="22.749619140625" data-glyph-h="44.99322265625" data-glyph-ascender="36.1801171875" data-glyph-descender="-8.81310546875" data-kerning="0"></path><path d="M7.06-15.79L7.06-15.79L7.06-4.98L1.48-4.98L1.48-25.41L7.06-25.41L7.06-24.56Q9.28-25.93 12.08-25.93L12.08-25.93Q12.42-25.93 12.78-25.91L12.78-25.91L12.78-20.20Q12.21-20.35 11.62-20.35L11.62-20.35Q9.74-20.35 8.41-19.02L8.41-19.02Q7.06-17.69 7.06-15.79Z" transform="translate(176.17777343749998 39) " fill="rgb(0, 150, 212)" stroke="rgb(0, 150, 212)" stroke-width="0.072" data-glyph-w="13.62025390625" data-glyph-h="44.99322265625" data-glyph-ascender="36.1801171875" data-glyph-descender="-8.81310546875" data-kerning="0"></path><path d="M3.96-25.41L0.84-25.41L0.84-19.82L3.96-19.82L3.96-11.85Q3.96-9.00 5.97-6.98L5.97-6.98Q7.99-4.98 10.84-4.98L10.84-4.98L13.75-4.98L13.75-10.56L10.84-10.56Q10.31-10.56 9.93-10.94L9.93-10.94Q9.55-11.32 9.55-11.85L9.55-11.85L9.55-19.82L13.75-19.82L13.75-25.41L9.55-25.41L9.55-31.86L3.96-31.86L3.96-25.41Z" transform="translate(189.79802734375 39) " fill="rgb(0, 150, 212)" stroke="rgb(0, 150, 212)" stroke-width="0.072" data-glyph-w="14.5901171875" data-glyph-h="44.99322265625" data-glyph-ascender="36.1801171875" data-glyph-descender="-8.81310546875" data-kerning="0"></path></g></svg></g></g></g></svg>